# xmcd CD database file
#
# Track frame offsets:
#	150
#	32787
#	43808
#	69277
#	82150
#	113513
#	127444
#	152325
#	181957
#	195354
#	235974
#	262260
#	297833
#
# Disc length: 4132 seconds
#
# Revision: 0
# Processed by: cddbd v1.5.1PL0 Copyright (c) Steve Scherf et al.
# Submitted via: CDex 1.40Release
#
DISCID=b910220d
DTITLE=Beethoven, Ludwig van - Piano Sonata No.12, 23, 24, 26 (Maurizio Pollini)
DYEAR=1986
DGENRE=Classical
TTITLE0=Piano Sonata No.12 in A flat major, Op.26 "Funeral March" - 1. Andante con variazioni
TTITLE1=Piano Sonata No.12 in A flat major, Op.26 "Funeral March" - 2. Scherzo. Allegro molto
TTITLE2=Piano Sonata No.12 in A flat major, Op.26 "Funeral March" - 3. Marcia funebre sulla morte d'un Eroe
TTITLE3=Piano Sonata No.12 in A flat major, Op.26 "Funeral March" - 4. Allegro
TTITLE4=Piano Sonata No.26 in E flat major, Op.81a "Das Lebewohl" - 1. Adagio - Allegro "Das Lebewohl"
TTITLE5=Piano Sonata No.26 in E flat major, Op.81a "Das Lebewohl" - 2. Andante espressivo "Die Abwesenheit"
TTITLE6=Piano Sonata No.26 in E flat major, Op.81a "Das Lebewohl" - 3. Vivacissimamente "Das Wiedersehen"
TTITLE7=Piano Sonata No.24 in F sharp major, Op.78 "To Therese" - 1. Adagio cantabile - Allegro, ma non troppo
TTITLE8=Piano Sonata No.24 in F sharp major, Op.78 "To Therese" - 2. Allegro vivace
TTITLE9=Piano Sonata No.23 in F minor, Op.57 "Appassionata" - 1. Allegro assai
TTITLE10=Piano Sonata No.23 in F minor, Op.57 "Appassionata" - 2. Andante con moto
TTITLE11=Piano Sonata No.23 in F minor, Op.57 "Appassionata" - 3. Allegro, ma non troppo
TTITLE12=Bagatelle in F sharp major, Op.126-3
EXTD=YEAR: 1986 ID3G: 32
EXTT0=
EXTT1=
EXTT2=
EXTT3=
EXTT4=
EXTT5=
EXTT6=
EXTT7=
EXTT8=
EXTT9=
EXTT10=
EXTT11=
EXTT12=
PLAYORDER=
